<?xml version="1.0" encoding="UTF-8" standalone="no"?>
<svg width="315px" height="205px" viewBox="0 0 315 205" version="1.1" xmlns="http://www.w3.org/2000/svg" xmlns:xlink="http://www.w3.org/1999/xlink">
    <!-- Generator: sketchtool 40.3 (33839) - http://www.bohemiancoding.com/sketch -->
    <title>F778B8A1-86E0-43BE-959A-1C00B41B9C9E</title>
    <desc>Created with sketchtool.</desc>
    <defs></defs>
    <g id="Welcome" stroke="none" stroke-width="1" fill="none" fill-rule="evenodd">
        <g id="SLIDE_3" transform="translate(-567.000000, -245.000000)">
            <g id="Page-1" transform="translate(568.000000, 245.000000)">
                <path d="M289.485662,86.7815825 C288.90451,86.2215641 230.436151,30.7097369 159.612784,30.7097369 C88.7452791,30.7097369 28.7394412,88.9442853 28.1546105,89.5043037 L25.395975,86.5089419 C25.9881621,85.9378705 87.2629723,27.1838313 159.612784,27.1838313 C231.962596,27.1838313 291.457167,83.7088498 292.049354,84.2799212 L289.485662,86.7815825 Z" id="Fill-1" fill="#FFFFFF"></path>
                <path d="M289.485662,86.7815825 C288.90451,86.2215641 230.436151,30.7097369 159.612784,30.7097369 C88.7452791,30.7097369 28.7394412,88.9442853 28.1546105,89.5043037 L25.395975,86.5089419 C25.9881621,85.9378705 87.2629723,27.1838313 159.612784,27.1838313 C231.962596,27.1838313 291.457167,83.7088498 292.049354,84.2799212 L289.485662,86.7815825 L289.485662,86.7815825 Z" id="Stroke-3" stroke="#FFFFFF"></path>
                <path d="M161.142907,57.539041 C137.481172,57.539041 118.229575,76.8228336 118.229575,100.52414 C118.229575,124.225447 137.481172,143.505555 161.142907,143.505555 C184.808321,143.505555 204.05624,124.225447 204.05624,100.520456 C204.05624,76.815465 184.808321,57.539041 161.142907,57.539041 M161.142907,147.189887 C135.454494,147.189887 114.551394,126.251829 114.551394,100.520456 C114.551394,74.7890825 135.454494,53.8510249 161.142907,53.8510249 C186.83132,53.8510249 207.734421,74.7890825 207.734421,100.520456 C207.734421,126.251829 186.83132,147.189887 161.142907,147.189887" id="Fill-5" fill="#FFFFFF"></path>
                <path d="M161.142907,57.539041 C137.481172,57.539041 118.229575,76.8228336 118.229575,100.52414 C118.229575,124.225447 137.481172,143.505555 161.142907,143.505555 C184.808321,143.505555 204.05624,124.225447 204.05624,100.520456 C204.05624,76.815465 184.808321,57.539041 161.142907,57.539041 L161.142907,57.539041 Z M161.142907,147.189887 C135.454494,147.189887 114.551394,126.251829 114.551394,100.520456 C114.551394,74.7890825 135.454494,53.8510249 161.142907,53.8510249 C186.83132,53.8510249 207.734421,74.7890825 207.734421,100.520456 C207.734421,126.251829 186.83132,147.189887 161.142907,147.189887 L161.142907,147.189887 Z" id="Stroke-7" stroke="#FFFFFF"></path>
                <path d="M161.757163,111.879251 C161.757163,106.964352 165.736955,102.974221 170.647326,102.974221 C175.112637,102.974221 178.772427,106.286435 179.405074,110.582366 C181.045542,107.594373 181.987157,104.167944 181.987157,100.520456 C181.987157,88.9921816 172.655613,79.6413475 161.142907,79.6413475 C158.737377,79.6413475 156.434836,80.06873 154.286779,80.8203336 C158.211397,81.7451009 161.142907,85.2562691 161.142907,89.4674604 C161.142907,94.382359 157.163116,98.3724903 152.252745,98.3724903 C147.401225,98.3724903 143.46925,94.4707829 143.380973,89.6332553 C141.438894,92.805465 140.298658,96.5266401 140.298658,100.520456 C140.298658,112.052414 149.630202,121.399564 161.142907,121.399564 C163.485908,121.399564 165.729598,120.997972 167.82984,120.279527 C164.309821,119.096857 161.757163,115.79938 161.757163,111.879251" id="Fill-9" fill="#FFFFFF"></path>
                <path d="M161.757163,111.879251 C161.757163,106.964352 165.736955,102.974221 170.647326,102.974221 C175.112637,102.974221 178.772427,106.286435 179.405074,110.582366 C181.045542,107.594373 181.987157,104.167944 181.987157,100.520456 C181.987157,88.9921816 172.655613,79.6413475 161.142907,79.6413475 C158.737377,79.6413475 156.434836,80.06873 154.286779,80.8203336 C158.211397,81.7451009 161.142907,85.2562691 161.142907,89.4674604 C161.142907,94.382359 157.163116,98.3724903 152.252745,98.3724903 C147.401225,98.3724903 143.46925,94.4707829 143.380973,89.6332553 C141.438894,92.805465 140.298658,96.5266401 140.298658,100.520456 C140.298658,112.052414 149.630202,121.399564 161.142907,121.399564 C163.485908,121.399564 165.729598,120.997972 167.82984,120.279527 C164.309821,119.096857 161.757163,115.79938 161.757163,111.879251 L161.757163,111.879251 Z" id="Stroke-11" stroke="#FFFFFF"></path>
                <path d="M161.142907,160.342951 C95.5425568,160.342951 40.4213427,111.643453 31.1339367,102.977905 C40.4213427,94.3123567 95.5425568,45.612859 161.142907,45.612859 C226.746936,45.612859 281.864472,94.3123567 291.1482,102.977905 C281.86815,111.647138 226.783718,160.342951 161.142907,160.342951 L161.142907,160.342951 Z M285.535296,112.778228 C291.560156,107.767536 294.969829,104.422163 295.113278,104.282159 L296.422711,102.977905 L295.113278,101.673652 C294.969829,101.529963 291.379925,98.0151101 285.053455,92.7796747 L313.02234,61.7354949 L310.29313,59.2669926 L282.195508,90.451177 C274.750871,84.4788751 264.363689,76.8633613 251.762242,69.4320641 L272.595457,32.6255894 L269.39544,30.8092138 L248.576938,67.5898982 C238.712057,61.9712922 227.611308,56.5700618 215.57998,52.1709696 L229.395226,12.2770249 L225.919345,11.0685641 L213.354681,47.3481793 L212.115134,50.9256654 C200.893005,47.0718544 188.920527,44.1612323 176.447817,42.7980295 L183.042794,1.3640341 L179.408752,0.785594009 L172.776992,42.448018 C168.933294,42.1274811 165.06017,41.9285272 161.142907,41.9285272 C153.948386,41.9285272 146.886279,42.5180203 139.986013,43.5459488 L129.687107,2.03826682 L126.115594,2.92987512 L136.344614,44.1501793 C124.180871,46.26867 112.587246,49.7651009 101.795464,54.0389258 L87.4505595,14.3586724 L87.4468813,14.3586724 L83.9893916,15.6150295 L98.378434,55.4131816 C87.3512486,60.014912 77.2399302,65.3608774 68.3019514,70.7584235 L41.5579005,36.818359 L38.6705287,39.0989604 L65.1460725,72.6926977 C52.6549713,80.4850594 42.6981365,88.1853129 36.1252278,93.6897046 L33.4291214,91.5675295 L2.53608276,67.2472553 L0.262967168,70.1505088 L33.2672815,96.1287323 C29.4235828,99.4630525 27.2828817,101.563122 27.1725363,101.669967 L25.8594258,102.977905 L27.1688581,104.282159 C27.2718471,104.38532 29.224961,106.293804 32.6971635,109.329693 L0.259288988,134.865797 L0.259288988,134.869481 L1.92550479,136.991656 L2.53240458,137.765366 L35.5477534,111.779774 C42.0287076,117.236269 52.0370369,125.036 64.6531963,132.94626 L38.6705287,165.913661 L38.6705287,165.917345 L41.5579005,168.197947 L67.8017189,134.895271 C76.7801577,140.344398 86.9650397,145.760366 98.0805014,150.417361 L83.9857134,189.401276 L83.9893916,189.401276 L83.9893916,189.40496 L86.3875653,190.270778 L87.4468813,190.653949 L87.4505595,190.653949 L101.497531,151.791617 C112.304026,156.091232 123.923398,159.620822 136.120245,161.761419 L126.115594,202.08643 L129.687107,202.974354 L129.687107,202.97067 L139.761644,162.365649 C146.731796,163.415684 153.867466,164.019914 161.142907,164.019914 C165.111664,164.019914 169.036283,163.813592 172.920442,163.485686 L179.405074,204.227027 L183.039116,203.644903 L176.591266,163.135675 C189.115471,161.75405 201.146799,158.817638 212.402032,154.926983 L225.915667,193.947741 L225.919345,193.947741 L229.391548,192.739281 L215.8632,153.674311 C227.942345,149.238375 239.087232,143.789248 248.970503,138.133799 L269.391762,174.207092 L272.588101,172.3944 L272.591779,172.390716 L252.152129,136.284265 C264.860243,128.757175 275.280529,121.071659 282.681028,115.106725 L310.289451,145.752997 L313.018661,143.284495 L313.014983,143.280811 L313.018661,143.280811 L285.535296,112.778228 Z" id="Fill-13" fill="#FFFFFF"></path>
                <path d="M161.142907,160.342951 C95.5425568,160.342951 40.4213427,111.643453 31.1339367,102.977905 C40.4213427,94.3123567 95.5425568,45.612859 161.142907,45.612859 C226.746936,45.612859 281.864472,94.3123567 291.1482,102.977905 C281.86815,111.647138 226.783718,160.342951 161.142907,160.342951 L161.142907,160.342951 Z M285.535296,112.778228 C291.560156,107.767536 294.969829,104.422163 295.113278,104.282159 L296.422711,102.977905 L295.113278,101.673652 C294.969829,101.529963 291.379925,98.0151101 285.053455,92.7796747 L313.02234,61.7354949 L310.29313,59.2669926 L282.195508,90.451177 C274.750871,84.4788751 264.363689,76.8633613 251.762242,69.4320641 L272.595457,32.6255894 L269.39544,30.8092138 L248.576938,67.5898982 C238.712057,61.9712922 227.611308,56.5700618 215.57998,52.1709696 L229.395226,12.2770249 L225.919345,11.0685641 L213.354681,47.3481793 L212.115134,50.9256654 C200.893005,47.0718544 188.920527,44.1612323 176.447817,42.7980295 L183.042794,1.3640341 L179.408752,0.785594009 L172.776992,42.448018 C168.933294,42.1274811 165.06017,41.9285272 161.142907,41.9285272 C153.948386,41.9285272 146.886279,42.5180203 139.986013,43.5459488 L129.687107,2.03826682 L126.115594,2.92987512 L136.344614,44.1501793 C124.180871,46.26867 112.587246,49.7651009 101.795464,54.0389258 L87.4505595,14.3586724 L87.4468813,14.3586724 L83.9893916,15.6150295 L98.378434,55.4131816 C87.3512486,60.014912 77.2399302,65.3608774 68.3019514,70.7584235 L41.5579005,36.818359 L38.6705287,39.0989604 L65.1460725,72.6926977 C52.6549713,80.4850594 42.6981365,88.1853129 36.1252278,93.6897046 L33.4291214,91.5675295 L2.53608276,67.2472553 L0.262967168,70.1505088 L33.2672815,96.1287323 C29.4235828,99.4630525 27.2828817,101.563122 27.1725363,101.669967 L25.8594258,102.977905 L27.1688581,104.282159 C27.2718471,104.38532 29.224961,106.293804 32.6971635,109.329693 L0.259288988,134.865797 L0.259288988,134.869481 L1.92550479,136.991656 L2.53240458,137.765366 L35.5477534,111.779774 C42.0287076,117.236269 52.0370369,125.036 64.6531963,132.94626 L38.6705287,165.913661 L38.6705287,165.917345 L41.5579005,168.197947 L67.8017189,134.895271 C76.7801577,140.344398 86.9650397,145.760366 98.0805014,150.417361 L83.9857134,189.401276 L83.9893916,189.401276 L83.9893916,189.40496 L86.3875653,190.270778 L87.4468813,190.653949 L87.4505595,190.653949 L101.497531,151.791617 C112.304026,156.091232 123.923398,159.620822 136.120245,161.761419 L126.115594,202.08643 L129.687107,202.974354 L129.687107,202.97067 L139.761644,162.365649 C146.731796,163.415684 153.867466,164.019914 161.142907,164.019914 C165.111664,164.019914 169.036283,163.813592 172.920442,163.485686 L179.405074,204.227027 L183.039116,203.644903 L176.591266,163.135675 C189.115471,161.75405 201.146799,158.817638 212.402032,154.926983 L225.915667,193.947741 L225.919345,193.947741 L229.391548,192.739281 L215.8632,153.674311 C227.942345,149.238375 239.087232,143.789248 248.970503,138.133799 L269.391762,174.207092 L272.588101,172.3944 L272.591779,172.390716 L252.152129,136.284265 C264.860243,128.757175 275.280529,121.071659 282.681028,115.106725 L310.289451,145.752997 L313.018661,143.284495 L313.014983,143.280811 L313.018661,143.280811 L285.535296,112.778228 L285.535296,112.778228 Z" id="Stroke-15" stroke="#FFFFFF"></path>
            </g>
        </g>
    </g>
</svg>