<?xml version="1.0" encoding="UTF-8" standalone="no"?>
<svg width="163px" height="217px" viewBox="0 0 163 217" version="1.1" xmlns="http://www.w3.org/2000/svg" xmlns:xlink="http://www.w3.org/1999/xlink">
    <!-- Generator: sketchtool 40.3 (33839) - http://www.bohemiancoding.com/sketch -->
    <title>CE317596-11E6-40A0-BB63-46031760D8CA</title>
    <desc>Created with sketchtool.</desc>
    <defs>
        <polygon id="path-1" points="45.0875156 48.333799 45.0875156 0.0743891881 0.121316454 0.0743891881 0.121316454 48.333799 45.0875156 48.333799"></polygon>
        <polygon id="path-3" points="0.0925268343 48.576006 45.0616635 48.576006 45.0616635 0.317109389 0.0925268343 0.317109389 0.0925268343 48.576006"></polygon>
    </defs>
    <g id="Welcome" stroke="none" stroke-width="1" fill="none" fill-rule="evenodd">
        <g id="SLIDE_2" transform="translate(-640.000000, -207.000000)">
            <g id="Page-1" transform="translate(640.000000, 207.000000)">
                <g id="Group-3" transform="translate(0.000000, 0.329557)" fill="#FFFFFF">
                    <path d="M23.6726584,117.269942 L59.8999278,78.5122724 L59.9268676,78.5122724 L90.7863858,44.8337061 C91.998676,43.5116554 91.9582663,41.4611279 90.6920966,40.1862933 L79.6467867,29.0028238 L82.1723911,25.6302456 L82.1723911,25.6167553 L95.6894258,39.2891875 C95.7096307,39.3161681 95.7298355,39.3364036 95.7433054,39.356639 L120.642397,63.32218 L136.011542,80.7651547 L133.310829,83.7262784 L121.948977,72.7249282 C120.608723,71.4366033 118.473745,71.4838194 117.18737,72.8261055 C117.106551,72.9070474 117.032467,72.9947344 116.965117,73.0824215 L106.088181,87.0111696 L94.5108105,75.4904423 C93.8777256,74.8429073 93.0089177,74.4786689 92.0997001,74.4786689 C90.2408553,74.4786689 88.7322276,75.9895839 88.7322276,77.8512471 C88.7322276,78.7685884 89.1026496,79.6387136 89.7626742,80.2727583 L101.838431,92.2926271 L98.2217652,96.7646659 L95.17757,93.7630712 C94.5377502,93.1155362 93.6689423,92.7580429 92.7597247,92.7647881 C90.9008799,92.7782784 89.4057221,94.3026838 89.419192,96.1643469 C89.4259269,97.0749431 89.7963489,97.9450683 90.4563735,98.5723678 L93.9652799,102.025888 L92.2209291,104.191083 L90.27453,106.349533 L78.144894,93.8844841 C77.5185441,93.2234587 76.6497362,92.8389848 75.7337836,92.8322396 L75.7337836,92.8322396 C73.8749388,92.805259 72.3528412,94.3026838 72.3326364,96.1643469 C72.3191665,97.0681979 72.6761186,97.9450683 73.3159384,98.5858581 L85.7486469,111.361185 L81.7884993,115.745536 L78.8655331,112.298761 C78.2122434,111.502833 77.2289415,111.050907 76.1984949,111.077888 L76.1984949,111.077888 C74.33965,111.111614 72.8579621,112.656255 72.8983718,114.517918 C72.9118417,115.307101 73.2081793,116.062559 73.72677,116.662877 L77.2289415,120.797658 L70.783599,127.940779 L58.7684571,114.659566 C58.0882276,113.883873 57.0981907,113.465673 56.074479,113.512889 L56.074479,113.512889 C54.2156342,113.614067 52.7878258,115.199179 52.88885,117.060842 C52.9292597,117.850025 53.2458021,118.598737 53.7845977,119.178821 L66.2442461,132.972666 L62.6612553,136.938818 L60.0548316,134.146323 C59.3611322,133.38412 58.3643604,132.979411 57.3339138,133.046863 C55.4818039,133.175021 54.0742004,134.787113 54.2021643,136.642031 C54.2560439,137.437959 54.5860562,138.179927 55.1383217,138.753265 L58.1286373,141.963959 L55.1787313,145.228615 L41.3249494,130.665822 C40.63125,129.910365 39.6277432,129.512401 38.6040316,129.586597 C36.7451867,129.7215 35.3510531,131.333593 35.485752,133.195256 C35.5463665,133.991185 35.8831138,134.746642 36.4421142,135.313235 L48.7401239,148.23021 L21.3288975,146.489959 L23.6726584,117.269942 Z M110.755498,29.8054975 L117.948419,22.9726539 L134.920481,41.7511696 L131.600153,45.1777091 L131.526068,39.5657389 C131.579948,38.96542 131.068092,38.6888686 130.657261,38.6956137 C130.259899,38.7023589 129.828862,39.1003231 129.842332,39.5657389 L129.936621,46.897724 L127.411017,49.5080996 L127.680415,40.4358641 C127.707355,39.9704483 127.350403,39.5724841 126.885691,39.5522486 C126.845282,39.5455034 126.804872,39.5455034 126.764462,39.5522486 L126.764462,39.5387583 C126.333426,39.5792292 126.003414,39.9367225 125.996679,40.3684125 L125.673401,51.3023112 L122.999628,54.0610802 L122.945748,43.7342456 C122.952483,43.2688298 122.582061,42.8843559 122.11735,42.8776107 L122.076941,42.8776107 L122.076941,42.8641204 C121.612229,42.8776107 121.241807,43.2688298 121.262012,43.7342456 L121.262012,43.7342456 L121.322627,54.6006927 L118.871107,52.2398879 L118.797022,43.5453812 C118.810492,43.0799654 118.433335,42.6954915 117.968624,42.6887463 L117.941684,42.6887463 L117.941684,42.675256 C117.476973,42.6820012 117.106551,43.0664751 117.113286,43.5318909 L117.113286,43.5453812 L117.173901,50.6008149 L114.257669,47.7948298 L114.500127,42.6617657 C114.533802,42.1963499 114.183585,41.7983857 113.718874,41.7714051 C113.678464,41.7646599 113.644789,41.7646599 113.611115,41.7714051 L113.611115,41.7646599 C113.173343,41.7916405 112.829861,42.1491338 112.816391,42.5808238 L112.641283,46.2366987 L109.778931,43.4779297 L110.344666,39.6197001 C110.418751,39.1610295 110.102208,38.7225943 109.644232,38.6483976 C109.583617,38.6416525 109.523003,38.6416525 109.462388,38.6416525 L109.462388,38.6416525 C109.058292,38.6753782 108.735014,38.9789103 108.68787,39.3836197 L108.290508,42.0479565 L103.535637,37.4612501 L110.755498,29.8054975 Z M121.423651,8.11981937 L150.505144,40.7124155 L149.454492,41.9535243 L146.403562,44.4020161 L120.999349,16.294949 C120.89159,16.119575 120.830976,15.9307106 120.682807,15.7823171 C120.568313,15.647414 120.399939,15.5867076 120.26524,15.4787851 L117.039202,11.9105973 L121.423651,8.11981937 Z M64.9646065,144.574335 C65.3148236,144.270803 65.5909564,143.906565 65.7862698,143.515345 L83.8830672,123.461995 C83.8898021,123.461995 83.8965371,123.45525 83.8965371,123.45525 C83.9234768,123.435015 83.9369467,123.401289 83.9571516,123.374308 L92.4701221,113.944579 C92.5509415,113.883873 92.6452307,113.863638 92.7193151,113.789441 C92.8944236,113.627557 92.9954478,113.411712 93.1301467,113.216103 L97.2721379,108.622651 C97.3125476,108.58218 97.3529573,108.541709 97.386632,108.494493 L108.62052,94.6062158 C108.66093,94.57249 108.71481,94.5589997 108.755219,94.5185288 C108.916858,94.3633902 108.997677,94.1610355 109.125641,93.9789162 L110.937341,91.7395243 C110.950811,91.7192888 110.964281,91.6923082 110.977751,91.6720727 L119.962168,80.1715809 L131.115237,90.9638313 C132.455491,92.2521562 134.590468,92.2116852 135.876843,90.8693991 C135.903783,90.8491636 135.923988,90.822183 135.944192,90.8019475 L143.02262,83.0382724 C144.18103,81.770183 144.1945,79.8275779 143.063029,78.5325079 L126.670173,59.9563469 L139.453099,46.7628209 L143.534476,51.2753306 C144.726561,52.6041264 146.747044,52.7660101 148.134443,51.6463142 L153.926496,47.0123917 C154.094869,46.8774885 154.256508,46.7223499 154.397942,46.553721 L156.963956,43.4981651 C157.630716,42.7022367 157.893378,41.6432471 157.671125,40.6247285 L157.293968,38.8709878 C157.172739,38.2976495 156.903341,37.7715273 156.51945,37.3330921 L124.225388,1.15881788 C123.538424,0.389870045 122.541652,-0.0215845007 121.511205,0.0391219076 L121.511205,0.0323767511 C120.777096,0.07284769 120.069927,0.362889419 119.510927,0.848540686 L110.028124,9.08437675 C108.627255,10.3052501 108.479087,12.4299744 109.698112,13.8397121 C109.711581,13.8532024 109.725051,13.8734379 109.738521,13.8869282 L113.422536,17.9677478 L106.054506,24.9692203 C106.014097,25.0164364 105.966952,25.0569073 105.926542,25.1041234 L98.7134162,32.7328954 L84.2198144,18.0824155 C83.5799946,17.4348805 82.7111867,17.070642 81.8019691,17.0773872 L81.8019691,17.0908775 C80.7513177,17.0976227 79.7612808,17.5967642 79.128196,18.4331636 L72.5144799,27.2760638 C71.517708,28.6116048 71.645672,30.473268 72.8175524,31.6604155 L83.654079,42.6347851 L54.976683,73.9120757 L17.9479551,113.512889 C17.4293643,114.072737 17.1195568,114.780979 17.0589423,115.543182 L14.4390487,148.196484 L0.901809143,162.745787 C-0.364360527,164.108308 -0.290276132,166.246523 1.07691771,167.514612 C2.43737662,168.782702 4.56561925,168.708505 5.83852387,167.339238 L19.0794258,153.093468 L53.4680553,155.272153 C54.4917669,155.339605 55.4885388,154.92815 56.1755032,154.165948 L56.8759375,153.390255 C57.1453353,153.262097 57.4147331,153.154174 57.6504562,152.958565 C58.1151674,152.553855 58.3913001,152.047968 58.5798786,151.508356 L64.7086786,144.715983 C64.7894979,144.655277 64.8837872,144.641787 64.9646065,144.574335 L64.9646065,144.574335 Z" id="Fill-1"></path>
                </g>
                <g id="Group-6" transform="translate(117.285275, 132.077694)">
                    <mask id="mask-2" fill="white">
                        <use xlink:href="#path-1"></use>
                    </mask>
                    <g id="Clip-5"></g>
                    <path d="M28.7801931,22.4481636 L23.5202011,16.2223842 L31.1710986,8.3170608 L31.1710986,8.31031565 L36.9968261,14.4618984 L28.7801931,22.4481636 Z M18.6575707,35.6889058 L14.0306635,39.9990608 L7.96247798,32.3163276 L18.8124745,21.0923872 L24.5169729,27.8375437 L18.6575707,35.6889058 Z M44.1628076,12.2562322 L33.6293536,1.13346915 C33.0030037,0.472443815 32.1341958,0.0947150522 31.2182433,0.0812247392 L31.2182433,0.0744795827 C30.2955558,0.0677344262 29.406543,0.438718033 28.7599883,1.10648852 L16.6303523,13.6524796 C16.5764727,13.7064408 16.5225931,13.7604021 16.4754485,13.8143633 L1.07262919,29.746423 C-0.105986198,30.9605511 -0.200275429,32.8559401 0.850376,34.1847359 L10.9999382,47.0544945 C12.1583487,48.5181934 14.2798564,48.7610191 15.7346046,47.6008522 C15.801954,47.5468909 15.8693035,47.4861845 15.9366529,47.4254781 L23.4730564,40.4307508 C23.6212252,40.2891025 23.7491892,40.1407091 23.8704182,39.9720802 L30.8545562,30.6165481 C30.9017008,30.5760772 30.9623153,30.569332 31.00946,30.5356063 C31.5415206,30.1241517 31.8513281,29.577794 32.0601114,28.9909654 L32.969329,27.7768373 L44.0617835,16.9980772 C45.3885676,15.7097523 45.4357123,13.5985183 44.1628076,12.2562322 L44.1628076,12.2562322 Z" id="Fill-4" fill="#FFFFFF" mask="url(#mask-2)"></path>
                </g>
                <g id="Group-9" transform="translate(68.349451, 167.598559)">
                    <mask id="mask-4" fill="white">
                        <use xlink:href="#path-3"></use>
                    </mask>
                    <g id="Clip-8"></g>
                    <path d="M31.1573422,40.2416906 L26.5304349,35.9315356 L20.6642978,28.0734283 L26.3755312,21.335017 L37.2187927,32.5454671 L31.1573422,40.2416906 Z M8.20464941,14.7112733 L14.016907,8.55969061 L14.016907,8.55969061 L21.6678046,16.465014 L16.4078125,22.6840483 L8.20464941,14.7112733 Z M28.5374485,13.8613836 C28.5037738,13.8276578 28.4903039,13.7871869 28.4566292,13.7602063 C28.4431593,13.7467159 28.4229545,13.7399708 28.4027496,13.7264805 L16.4212824,1.33562802 C15.7881975,0.681347839 14.9126547,0.317109389 14.0034371,0.317109389 L14.0034371,0.323854545 C13.0807496,0.317109389 12.1984718,0.694838152 11.558652,1.36260864 L1.01846303,12.4853717 C-0.254441582,13.8209127 -0.207296967,15.9388918 1.11275226,17.2272167 L12.2119417,28.0194671 L13.0942195,29.1931243 C13.2693281,29.699011 13.525256,30.1779171 13.9428226,30.5691362 C14.0371118,30.6635684 14.1650758,30.690549 14.2661,30.7714909 L21.3041175,40.2012197 C21.4253465,40.3698486 21.5600455,40.5249872 21.7149492,40.6598903 L29.2378828,47.6681079 C30.5983417,48.9429425 32.7265844,48.8687458 33.999489,47.5062241 C34.0601035,47.4320274 34.120718,47.3578307 34.1813325,47.283634 L44.3376296,34.4138754 C45.3815461,33.0850796 45.2872569,31.1896906 44.1153764,29.9755624 L28.5374485,13.8613836 Z" id="Fill-7" fill="#FFFFFF" mask="url(#mask-4)"></path>
                </g>
            </g>
        </g>
    </g>
</svg>