<?xml version="1.0" encoding="utf-8"?>
<!-- Generator: Adobe Illustrator 21.0.0, SVG Export Plug-In . SVG Version: 6.00 Build 0)  -->
<svg version="1.1" id="Capa_1" xmlns="http://www.w3.org/2000/svg" xmlns:xlink="http://www.w3.org/1999/xlink" x="0px" y="0px"
	 viewBox="0 0 512 512" style="enable-background:new 0 0 512 512;" xml:space="preserve">
<style type="text/css">
	.st0{fill:#FFFFFF;}
</style>
<g>
	<g id="arrow-R">
		<g>
			<path class="st0" d="M6.1,271.9c0.4,0.4,1,0.6,1.5,1l154.9,154.9c8.6,8.6,22.7,8.6,31.3,0c8.6-8.6,8.6-22.7,0-31.3L75.6,278.3
				h414.2c12.3,0,22.3-10,22.3-22.3c0-12.3-10-22.3-22.3-22.3H75.6l118.2-118.2c8.6-8.6,8.6-22.7,0-31.3c-8.6-8.6-22.6-8.6-31.3,0
				l-155,155c-0.4,0.4-1,0.5-1.4,0.9c-0.7,0.7-0.7,1.6-1.3,2.4c-1.9,2.3-3.2,4.9-4,7.7c-0.3,1.1-0.5,2-0.6,3.1
				C-0.7,259.9,1,266.8,6.1,271.9z"/>
		</g>
	</g>
</g>
</svg>
