<?xml version="1.0" encoding="UTF-8" standalone="no"?>
<svg width="190px" height="235px" viewBox="0 0 190 235" version="1.1" xmlns="http://www.w3.org/2000/svg" xmlns:xlink="http://www.w3.org/1999/xlink">
    <!-- Generator: sketchtool 40.3 (33839) - http://www.bohemiancoding.com/sketch -->
    <title>227DE443-9F2B-4247-B69E-6A471B55D78E</title>
    <desc>Created with sketchtool.</desc>
    <defs>
        <filter x="-50%" y="-50%" width="200%" height="200%" filterUnits="objectBoundingBox" id="filter-1">
            <feOffset dx="0" dy="2" in="SourceAlpha" result="shadowOffsetOuter1"></feOffset>
            <feGaussianBlur stdDeviation="12" in="shadowOffsetOuter1" result="shadowBlurOuter1"></feGaussianBlur>
            <feColorMatrix values="0 0 0 0 0   0 0 0 0 0   0 0 0 0 0  0 0 0 0.288920969 0" type="matrix" in="shadowBlurOuter1" result="shadowMatrixOuter1"></feColorMatrix>
            <feMerge>
                <feMergeNode in="shadowMatrixOuter1"></feMergeNode>
                <feMergeNode in="SourceGraphic"></feMergeNode>
            </feMerge>
        </filter>
        <polygon id="path-2" points="0 188.94 144.323 188.94 144.323 0 0 0"></polygon>
    </defs>
    <g id="Welcome" stroke="none" stroke-width="1" fill="none" fill-rule="evenodd">
        <g id="SLIDE_1" transform="translate(-618.000000, -218.000000)">
            <g id="icon" filter="url(#filter-1)" transform="translate(640.000000, 239.000000)">
                <path d="M98.4129,1.4596 C108.5739,1.4596 116.8109,9.4346 116.8109,19.2726 C116.8109,29.1116 108.5739,37.0866 98.4129,37.0866 C88.2519,37.0866 80.0149,29.1116 80.0149,19.2726 C80.0149,9.4346 88.2519,1.4596 98.4129,1.4596 L98.4129,1.4596 Z" id="Fill-1" fill="#FFFFFF"></path>
                <path d="M98.4117,2.9201 C89.0717,2.9201 81.4747,10.2561 81.4747,19.2721 C81.4747,28.2901 89.0717,35.6261 98.4117,35.6261 C107.7517,35.6261 115.3517,28.2901 115.3517,19.2721 C115.3517,10.2561 107.7517,2.9201 98.4117,2.9201 M98.4117,38.5461 C87.4637,38.5461 78.5547,29.8991 78.5547,19.2721 C78.5547,8.6451 87.4637,0.0001 98.4117,0.0001 C109.3627,0.0001 118.2717,8.6451 118.2717,19.2721 C118.2717,29.8991 109.3627,38.5461 98.4117,38.5461" id="Fill-3" fill="#FFFFFF"></path>
                <polygon id="Fill-5" fill="#FFFFFF" points="48.5063 145.7939 33.0563 75.3369 33.3413 75.2749 48.7913 145.7309"></polygon>
                <polygon id="Fill-7" fill="#FFFFFF" points="47.6783 147.472 47.0813 146.109 31.3173 74.225 34.1693 73.598 34.7663 74.962 50.5303 146.845"></polygon>
                <polygon id="Fill-9" fill="#FFFFFF" points="29.7872 75.9257 29.2032 121.1897 28.6192 120.8977 29.2032 75.6337"></polygon>
                <polygon id="Fill-11" fill="#FFFFFF" points="30.6331 123.5397 27.1481 121.7927 27.7731 73.2867 31.2591 75.0287"></polygon>
                <polygon id="Fill-13" fill="#FFFFFF" points="7.5609 142.7897 26.7839 73.2707 27.0649 73.3487 7.8419 142.8677"></polygon>
                <polygon id="Fill-15" fill="#FFFFFF" points="8.8625 144.6573 5.7625 143.8133 25.7635 71.4803 28.8635 72.3243"></polygon>
                <mask id="mask-3" fill="white">
                    <use xlink:href="#path-2"></use>
                </mask>
                <g id="Clip-18"></g>
                <polygon id="Fill-17" fill="#FFFFFF" mask="url(#mask-3)" points="81.768 126.154 120.023 126.154 120.023 42.635 81.768 42.635"></polygon>
                <path d="M134.3318,49.6435 C134.3318,54.3155 131.7038,58.1125 128.4918,58.1125 L74.1748,58.1125 C70.9628,58.1125 68.3348,54.3155 68.3348,49.6435 C68.3348,44.9715 70.9628,41.1745 74.1748,41.1745 L128.7838,41.1745 C131.7038,40.8825 134.3318,44.9715 134.3318,49.6435" id="Fill-19" fill="#FFFFFF" mask="url(#mask-3)"></path>
                <polyline id="Fill-20" fill="#FFFFFF" mask="url(#mask-3)" points="74.1749 49.6435 60.7419 67.4565 29.7869 68.6255"></polyline>
                <path d="M29.7818,77.3862 C25.0958,77.3862 21.2108,73.6792 21.0328,68.9562 C20.8498,64.1212 24.6218,60.0532 29.4568,59.8702 L56.2538,58.8592 L67.1788,44.3692 C70.0938,40.5052 75.5858,39.7382 79.4498,42.6482 C83.3118,45.5612 84.0818,51.0552 81.1698,54.9182 L65.2308,76.0532 L30.1188,77.3802 C30.0058,77.3852 29.8928,77.3862 29.7818,77.3862" id="Fill-21" fill="#FFFFFF" mask="url(#mask-3)"></path>
                <polyline id="Fill-22" fill="#FFFFFF" mask="url(#mask-3)" points="90.2362 122.0655 81.7672 147.7635 79.4312 178.4265"></polyline>
                <path d="M79.4387,187.1861 C79.2167,187.1861 78.9907,187.1771 78.7627,187.1601 C73.9407,186.7921 70.3277,182.5831 70.6947,177.7581 L73.1147,146.0351 L81.9137,119.3231 C83.4287,114.7281 88.3907,112.2351 92.9757,113.7451 C97.5737,115.2581 100.0717,120.2121 98.5567,124.8071 L90.4237,149.4911 L88.1657,179.0931 C87.8147,183.6901 83.9757,187.1861 79.4387,187.1861" id="Fill-23" fill="#FFFFFF" mask="url(#mask-3)"></path>
                <polyline id="Fill-24" fill="#FFFFFF" mask="url(#mask-3)" points="110.9699 122.0655 110.9699 148.9315 116.2259 180.1785"></polyline>
                <path d="M116.2155,188.94 C112.0175,188.943 108.3075,185.911 107.5885,181.634 L102.2105,148.932 L102.2105,122.065 C102.2105,117.227 106.1315,113.305 110.9715,113.305 C115.8105,113.305 119.7315,117.227 119.7315,122.065 L119.7315,148.199 L124.8655,178.725 C125.6695,183.499 122.4525,188.016 117.6815,188.817 C117.1875,188.9 116.6975,188.94 116.2155,188.94" id="Fill-25" fill="#FFFFFF" mask="url(#mask-3)"></path>
                <polyline id="Fill-26" fill="#FFFFFF" mask="url(#mask-3)" points="128.4914 49.6435 135.5004 75.9255 134.3314 96.9515"></polyline>
                <path d="M134.3415,105.7117 C134.1765,105.7117 134.0135,105.7077 133.8485,105.6987 C129.0175,105.4307 125.3185,101.2967 125.5865,96.4657 L126.6755,76.8347 L120.0285,51.9007 C118.7825,47.2257 121.5595,42.4247 126.2365,41.1787 C130.9055,39.9347 135.7135,42.7127 136.9565,47.3867 L144.3225,75.0177 L143.0795,97.4357 C142.8225,102.1017 138.9555,105.7117 134.3415,105.7117" id="Fill-27" fill="#FFFFFF" mask="url(#mask-3)"></path>
                <path d="M28.9111,120.8974 C32.7821,120.8974 35.9201,123.6434 35.9201,127.0304 C35.9201,130.4164 32.7821,133.1624 28.9111,133.1624 C25.0401,133.1624 21.9021,130.4164 21.9021,127.0304 C21.9021,123.6434 25.0401,120.8974 28.9111,120.8974" id="Fill-28" fill="#FFFFFF" mask="url(#mask-3)"></path>
                <polygon id="Fill-29" fill="#FFFFFF" mask="url(#mask-3)" points="21.611 163.825 35.92 163.825 35.92 134.915 21.611 134.915"></polygon>
                <path d="M40.5921,137.5428 C40.5921,139.2948 39.7161,140.7548 38.5481,140.7548 L18.9821,140.7548 C17.8141,140.7548 16.9381,139.2948 16.9381,137.5428 C16.9381,135.7908 17.8141,134.3308 18.9821,134.3308 L38.5481,134.3308 C39.7161,134.3308 40.5921,135.7908 40.5921,137.5428" id="Fill-30" fill="#FFFFFF" mask="url(#mask-3)"></path>
                <polyline id="Fill-31" fill="#FFFFFF" mask="url(#mask-3)" points="18.6903 137.5428 11.9733 144.5518 2.9213 145.1358"></polyline>
                <path d="M2.9179,148.0566 C1.3909,148.0566 0.1059,146.8706 0.0059,145.3246 C-0.0981,143.7166 1.1229,142.3276 2.7329,142.2216 L10.6519,141.7116 L16.5809,135.5226 C17.6969,134.3566 19.5469,134.3166 20.7099,135.4346 C21.8749,136.5496 21.9139,138.3976 20.7989,139.5616 L13.2959,147.3926 L3.1089,148.0506 C3.0449,148.0536 2.9809,148.0566 2.9179,148.0566" id="Fill-32" fill="#FFFFFF" mask="url(#mask-3)"></path>
                <polyline id="Fill-33" fill="#FFFFFF" mask="url(#mask-3)" points="24.2388 163.5329 19.8588 173.4619 18.6908 185.1429"></polyline>
                <path d="M18.6926,188.0616 C18.5956,188.0616 18.4976,188.0556 18.3986,188.0476 C16.7946,187.8876 15.6236,186.4556 15.7836,184.8506 L17.1866,172.2826 L21.5676,162.3556 C22.2186,160.8816 23.9446,160.2196 25.4186,160.8616 C26.8946,161.5116 27.5616,163.2366 26.9116,164.7106 L22.7176,174.2136 L21.5956,185.4326 C21.4446,186.9376 20.1756,188.0616 18.6926,188.0616" id="Fill-34" fill="#FFFFFF" mask="url(#mask-3)"></path>
                <polyline id="Fill-35" fill="#FFFFFF" mask="url(#mask-3)" points="33.5835 163.5329 38.2555 173.1699 38.2555 183.6829"></polyline>
                <path d="M38.2559,186.6015 C36.6429,186.6015 35.3359,185.2955 35.3359,183.6815 L35.3359,173.8395 L30.9549,164.8085 C30.2519,163.3565 30.8579,161.6085 32.3089,160.9065 C33.7619,160.2025 35.5079,160.8065 36.2109,162.2585 L41.1759,172.4995 L41.1759,183.6815 C41.1759,185.2955 39.8689,186.6015 38.2559,186.6015" id="Fill-36" fill="#FFFFFF" mask="url(#mask-3)"></path>
                <polyline id="Fill-37" fill="#FFFFFF" mask="url(#mask-3)" points="38.2559 137.8348 43.2199 144.8438 51.9809 146.0118"></polyline>
                <path d="M51.9859,148.9321 C51.8559,148.9321 51.7259,148.9231 51.5949,148.9061 L41.5739,147.5691 L35.8729,139.5241 C34.9409,138.2091 35.2519,136.3841 36.5679,135.4521 C37.8809,134.5221 39.7059,134.8301 40.6389,136.1471 L44.8679,142.1161 L52.3679,143.1171 C53.9669,143.3311 55.0899,144.8001 54.8759,146.3971 C54.6809,147.8651 53.4259,148.9321 51.9859,148.9321" id="Fill-38" fill="#FFFFFF" mask="url(#mask-3)"></path>
            </g>
        </g>
    </g>
</svg>